<?xml version="1.0" standalone="no"?>
<!DOCTYPE svg PUBLIC "-//W3C//DTD SVG 20010904//EN"
 "http://www.w3.org/TR/2001/REC-SVG-20010904/DTD/svg10.dtd">
<svg version="1.0" xmlns="http://www.w3.org/2000/svg"
 width="240.000000pt" height="240.000000pt" viewBox="0 0 240.000000 240.000000"
 preserveAspectRatio="xMidYMid meet">
<metadata>
Created by potrace 1.14, written by Peter Selinger 2001-2017
</metadata>
<g transform="translate(0.000000,240.000000) scale(0.100000,-0.100000)"
fill="#000000" stroke="none">
<path d="M442 1818 c-5 -7 -9 -52 -8 -101 0 -52 -3 -87 -9 -87 -7 0 -7 -3 0
-8 6 -4 10 -109 10 -277 0 -168 -4 -273 -10 -277 -7 -5 -7 -8 0 -8 6 0 10 -45
10 -115 0 -70 -4 -115 -10 -115 -7 0 -7 -3 0 -8 13 -9 14 -65 0 -74 -6 -5 -6
-8 0 -8 6 0 9 -28 8 -67 -2 -91 3 -110 30 -109 l22 1 1 620 c1 586 -1 645 -26
645 -4 0 -12 -6 -18 -12z"/>
<path d="M1691 1816 c-6 -7 -2 -30 11 -66 11 -30 22 -65 25 -77 3 -13 9 -23
14 -23 5 0 9 -6 9 -12 0 -7 12 -44 26 -83 43 -114 75 -199 83 -220 5 -11 16
-40 26 -65 9 -25 20 -52 24 -60 7 -12 -8 -60 -48 -155 -11 -25 -47 -120 -96
-250 -21 -55 -48 -125 -60 -156 -23 -57 -19 -89 9 -89 17 0 21 9 132 305 52
137 97 257 101 265 3 8 5 18 5 23 -1 4 2 7 6 7 17 0 10 47 -18 119 -16 42 -30
79 -30 83 0 5 -11 32 -24 62 -13 30 -22 57 -18 60 3 3 0 6 -6 6 -7 0 -12 5
-12 12 0 6 -26 80 -57 164 -57 151 -77 181 -102 150z"/>
<path d="M939 1742 c-31 -3 -36 -6 -32 -23 4 -13 15 -19 37 -20 78 -2 94 -5
109 -17 14 -12 16 -50 15 -303 0 -274 -1 -289 -19 -289 -28 0 -105 80 -120
125 -18 55 -19 63 -24 120 -2 28 -4 50 -5 50 0 0 -2 23 -4 51 -6 105 -42 144
-136 144 -37 0 -50 -4 -50 -15 0 -8 11 -17 24 -21 23 -5 54 -59 55 -94 2 -90
8 -150 14 -156 4 -4 7 -16 7 -26 0 -26 37 -98 69 -131 29 -33 87 -65 146 -82
38 -12 40 -14 43 -56 1 -24 -2 -50 -6 -57 -8 -12 -53 -21 -124 -24 -15 -1 -29
-7 -32 -14 -9 -23 32 -37 65 -22 8 3 21 3 29 -2 8 -5 21 -5 31 1 10 5 20 6 23
1 5 -8 69 -7 83 1 5 3 15 2 23 -3 8 -5 21 -5 31 1 10 5 20 6 22 2 6 -9 115 -8
124 1 3 3 3 12 0 20 -4 11 -20 15 -54 14 -76 -1 -100 13 -105 62 -4 46 7 69
37 75 11 2 21 4 23 5 1 2 5 3 10 4 50 9 152 85 152 113 0 7 4 13 9 13 20 0 45
103 56 230 2 30 6 63 8 72 4 21 34 51 60 61 10 4 15 11 12 17 -8 14 -98 13
-129 -1 -36 -17 -59 -73 -62 -154 -9 -188 -43 -268 -136 -316 l-38 -19 -1 37
c-4 250 1 557 9 565 6 6 41 13 79 15 64 5 69 7 69 28 0 13 -5 21 -11 18 -16
-6 -344 -9 -348 -3 -1 3 -18 4 -38 2z"/>
</g>
</svg>
